<svg width="81" height="81" viewBox="0 0 81 81" fill="none" xmlns="http://www.w3.org/2000/svg">
<path d="M36.3803 7.84571C21.047 9.51237 8.71368 21.8457 7.04701 36.8457C5.38035 52.5124 14.3803 66.5124 28.047 71.8457C29.047 72.179 30.047 71.5124 30.047 70.179L30.047 64.8457C30.047 64.8457 28.7137 65.179 27.047 65.179C22.3803 65.179 20.3803 61.179 20.047 58.8457C19.7137 57.5124 19.047 56.5124 18.047 55.5124C17.047 55.179 16.7137 55.179 16.7137 54.8457C16.7137 54.179 17.7137 54.179 18.047 54.179C20.047 54.179 21.7137 56.5124 22.3803 57.5124C24.047 60.179 26.047 60.8457 27.047 60.8457C28.3803 60.8457 29.3803 60.5124 30.047 60.179C30.3803 57.8457 31.3803 55.5124 33.3803 54.179C25.7137 52.5124 20.047 48.179 20.047 40.8457C20.047 37.179 21.7137 33.5124 24.047 30.8457C23.7137 30.179 23.3803 28.5124 23.3803 26.179C23.3803 24.8457 23.3803 22.8457 24.3803 20.8457C24.3803 20.8457 29.047 20.8457 33.7137 25.179C35.3804 24.5124 37.7137 24.179 40.047 24.179C42.3803 24.179 44.7137 24.5124 46.7137 25.179C51.047 20.8457 56.047 20.8457 56.047 20.8457C56.7137 22.8457 56.7137 24.8457 56.7137 26.179C56.7137 28.8457 56.3803 30.179 56.047 30.8457C58.3803 33.5124 60.047 36.8457 60.047 40.8457C60.047 48.179 54.3803 52.5124 46.7137 54.179C48.7137 55.8457 50.047 58.8457 50.047 61.8457L50.047 70.5124C50.047 71.5124 51.047 72.5124 52.3803 72.179C64.7137 67.179 73.3803 55.179 73.3803 41.179C73.3803 21.179 56.3803 5.51237 36.3803 7.84571Z" fill="#86A3BA"/>
</svg>
