<svg width="81" height="81" viewBox="0 0 81 81" fill="none" xmlns="http://www.w3.org/2000/svg">
<path d="M26.7137 10.8457C17.3803 10.8457 10.047 18.179 10.047 27.5124L10.047 54.179C10.047 63.5124 17.3803 70.8457 26.7137 70.8457L53.3803 70.8457C62.7137 70.8457 70.047 63.5124 70.047 54.179L70.047 27.5124C70.047 18.179 62.7137 10.8457 53.3803 10.8457L26.7137 10.8457ZM26.7137 17.5124L53.3803 17.5124C59.047 17.5124 63.3803 21.8457 63.3803 27.5124L63.3803 54.179C63.3803 59.8457 59.047 64.179 53.3803 64.179L26.7137 64.179C21.047 64.179 16.7137 59.8457 16.7137 54.179L16.7137 27.5124C16.7137 21.8457 21.047 17.5124 26.7137 17.5124ZM56.7137 20.8457C54.7137 20.8457 53.3803 22.179 53.3803 24.179C53.3803 26.179 54.7137 27.5124 56.7137 27.5124C58.7137 27.5124 60.047 26.179 60.047 24.179C60.047 22.179 58.7137 20.8457 56.7137 20.8457ZM40.047 24.179C30.7137 24.179 23.3803 31.5124 23.3803 40.8457C23.3803 50.179 30.7137 57.5124 40.047 57.5124C49.3803 57.5124 56.7137 50.179 56.7137 40.8457C56.7137 31.5124 49.3803 24.179 40.047 24.179ZM40.047 30.8457C45.7137 30.8457 50.047 35.179 50.047 40.8457C50.047 46.5124 45.7137 50.8457 40.047 50.8457C34.3803 50.8457 30.047 46.5124 30.047 40.8457C30.047 35.179 34.3803 30.8457 40.047 30.8457Z" fill="#86A3BA"/>
</svg>
