<svg width="81" height="81" viewBox="0 0 81 81" fill="none" xmlns="http://www.w3.org/2000/svg">
<path d="M64.047 11.5123L16.047 11.5123C13.1003 11.5123 10.7137 13.899 10.7137 16.8457L10.7137 64.8457C10.7137 67.7923 13.1003 70.179 16.047 70.179L64.047 70.179C66.9937 70.179 69.3803 67.7923 69.3803 64.8457L69.3803 16.8457C69.3803 13.899 66.9937 11.5123 64.047 11.5123ZM29.2577 59.5123L21.391 59.5123L21.391 34.2003L29.2577 34.2003L29.2577 59.5123ZM25.2443 30.5817C22.7083 30.5817 20.6577 28.5257 20.6577 25.995C20.6577 23.4643 22.711 21.411 25.2443 21.411C27.7723 21.411 29.8283 23.467 29.8283 25.995C29.8283 28.5257 27.7723 30.5817 25.2443 30.5817ZM58.7243 59.5123L50.863 59.5123L50.863 47.203C50.863 44.267 50.8097 40.491 46.775 40.491C42.6817 40.491 42.0523 43.6883 42.0523 46.9897L42.0523 59.5123L34.191 59.5123L34.191 34.2003L41.7377 34.2003L41.7377 37.659L41.8443 37.659C42.895 35.6697 45.4603 33.571 49.287 33.571C57.2523 33.571 58.7243 38.8137 58.7243 45.6297L58.7243 59.5123Z" fill="#86A3BA"/>
</svg>
